<mxfile host="65bd71144e">
    <diagram id="EYUW9VS5qTlCsF7O1JQ7" name="Page-1">
        <mxGraphModel dx="1020" dy="970" grid="0" gridSize="10" guides="1" tooltips="1" connect="1" arrows="1" fold="1" page="0" pageScale="1" pageWidth="850" pageHeight="1100" background="#ffffff" math="0" shadow="0">
            <root>
                <mxCell id="0"/>
                <mxCell id="1" parent="0"/>
                <mxCell id="2" style="edgeStyle=none;html=1;exitX=0.5;exitY=1;exitDx=0;exitDy=0;endArrow=none;endFill=0;fontSize=13;" parent="1" source="3" edge="1" target="17">
                    <mxGeometry relative="1" as="geometry">
                        <mxPoint x="397" y="505" as="targetPoint"/>
                    </mxGeometry>
                </mxCell>
                <mxCell id="3" value="&lt;b style=&quot;font-size: 13px;&quot;&gt;Spoke1&lt;/b&gt;&lt;br style=&quot;font-size: 13px;&quot;&gt;10.1.0.0/24&lt;br style=&quot;font-size: 13px;&quot;&gt;&lt;br style=&quot;font-size: 13px;&quot;&gt;&lt;b style=&quot;font-size: 13px;&quot;&gt;VM 10.1.0.4&lt;/b&gt;" style="whiteSpace=wrap;html=1;fillColor=#dae8fc;strokeColor=#6c8ebf;dashed=1;fontSize=13;" parent="1" vertex="1">
                    <mxGeometry x="204" y="339" width="160" height="100" as="geometry"/>
                </mxCell>
                <mxCell id="4" value="" style="aspect=fixed;html=1;points=[];align=center;image;fontSize=13;image=img/lib/azure2/networking/Virtual_Networks.svg;dashed=1;" parent="1" vertex="1">
                    <mxGeometry x="347.25" y="339" width="16.75" height="10" as="geometry"/>
                </mxCell>
                <mxCell id="5" style="edgeStyle=none;html=1;exitX=0.5;exitY=1;exitDx=0;exitDy=0;entryX=0.769;entryY=0.313;entryDx=0;entryDy=0;entryPerimeter=0;endArrow=none;endFill=0;fontSize=13;" parent="1" source="6" target="17" edge="1">
                    <mxGeometry relative="1" as="geometry"/>
                </mxCell>
                <mxCell id="6" value="&lt;b style=&quot;font-size: 13px;&quot;&gt;Spoke2 - TRANSIT&lt;/b&gt;&lt;br style=&quot;font-size: 13px;&quot;&gt;10.2.0.0/24&lt;br&gt;&lt;br&gt;AS 65002&lt;br&gt;OPNNVA&lt;br&gt;&lt;b style=&quot;font-size: 13px;&quot;&gt;NVA EXT NIC&amp;nbsp;&lt;/b&gt;&lt;span style=&quot;color: rgb(68, 68, 68); font-size: 14px; text-align: left;&quot;&gt;&lt;b&gt;10.2.0.52&lt;/b&gt;&lt;/span&gt;&lt;b style=&quot;font-size: 13px;&quot;&gt;&lt;br&gt;NVA INT NIC 10.2.0.68&lt;br&gt;&lt;br&gt;&lt;/b&gt;" style="whiteSpace=wrap;html=1;fillColor=#e1d5e7;strokeColor=#9673a6;dashed=1;fontSize=13;fontFamily=Helvetica;" parent="1" vertex="1">
                    <mxGeometry x="426.35" y="292" width="160" height="130" as="geometry"/>
                </mxCell>
                <mxCell id="7" value="" style="aspect=fixed;html=1;points=[];align=center;image;fontSize=13;image=img/lib/azure2/networking/Virtual_Networks.svg;dashed=1;" parent="1" vertex="1">
                    <mxGeometry x="564.35" y="322" width="16.75" height="10" as="geometry"/>
                </mxCell>
                <mxCell id="8" value="VNET Peering&lt;br&gt;Use Remote GW disabled" style="edgeStyle=none;html=1;exitX=0.5;exitY=1;exitDx=0;exitDy=0;entryX=0.5;entryY=0;entryDx=0;entryDy=0;endArrow=none;endFill=0;fontSize=8;" parent="1" source="9" target="6" edge="1">
                    <mxGeometry relative="1" as="geometry"/>
                </mxCell>
                <mxCell id="9" value="&lt;b style=&quot;font-size: 13px;&quot;&gt;Hub&lt;/b&gt;&lt;br style=&quot;font-size: 13px;&quot;&gt;10.20.0.0/24&lt;br style=&quot;font-size: 13px;&quot;&gt;&lt;br style=&quot;font-size: 13px;&quot;&gt;&lt;b style=&quot;font-size: 13px;&quot;&gt;VM 10.20.0.4&lt;br&gt;OPN NVA AS 65020&lt;br&gt;&lt;/b&gt;&lt;b style=&quot;border-color: var(--border-color);&quot;&gt;NVA INT NIC 10.2.0.84&lt;/b&gt;&lt;b style=&quot;font-size: 13px;&quot;&gt;&lt;br&gt;&lt;br&gt;ARS&lt;br&gt;&lt;/b&gt;" style="whiteSpace=wrap;html=1;fillColor=#E6E6E6;strokeColor=#6c8ebf;dashed=1;fontSize=13;" parent="1" vertex="1">
                    <mxGeometry x="426.35" y="71" width="160" height="136" as="geometry"/>
                </mxCell>
                <mxCell id="14" style="edgeStyle=none;html=1;endArrow=none;endFill=0;strokeColor=#FF8000;entryX=0.5;entryY=0;entryDx=0;entryDy=0;strokeWidth=2;fontSize=13;" parent="1" source="17" target="18" edge="1">
                    <mxGeometry relative="1" as="geometry">
                        <mxPoint x="407.35" y="652" as="targetPoint"/>
                    </mxGeometry>
                </mxCell>
                <mxCell id="15" value="IPSec + BGP" style="edgeLabel;html=1;align=center;verticalAlign=middle;resizable=0;points=[];fontStyle=1;fontColor=#FF8000;fontSize=13;" parent="14" vertex="1" connectable="0">
                    <mxGeometry x="0.3666" y="-2" relative="1" as="geometry">
                        <mxPoint x="-52" y="4" as="offset"/>
                    </mxGeometry>
                </mxCell>
                <mxCell id="16" style="edgeStyle=none;html=1;strokeColor=#000000;fontColor=#FF8000;endArrow=none;endFill=0;dashed=1;fontSize=13;" parent="1" source="17" target="39" edge="1">
                    <mxGeometry relative="1" as="geometry"/>
                </mxCell>
                <mxCell id="17" value="&lt;b style=&quot;font-size: 13px;&quot;&gt;Hub1&lt;br style=&quot;font-size: 13px;&quot;&gt;192.168.1.0/24&lt;/b&gt;" style="aspect=fixed;html=1;points=[];align=center;image;fontSize=13;image=img/lib/azure2/networking/Virtual_WANs.svg;" parent="1" vertex="1">
                    <mxGeometry x="397" y="489" width="79.22" height="78" as="geometry"/>
                </mxCell>
                <mxCell id="18" value="&lt;b style=&quot;font-size: 13px;&quot;&gt;Branch 1&lt;/b&gt;&lt;br style=&quot;font-size: 13px;&quot;&gt;10.100.0.0/16&lt;br style=&quot;font-size: 13px;&quot;&gt;&lt;br style=&quot;font-size: 13px;&quot;&gt;&lt;b style=&quot;font-size: 13px;&quot;&gt;VM 10.100.0.4&lt;/b&gt;" style="whiteSpace=wrap;html=1;fillColor=#eeeeee;strokeColor=#36393d;dashed=1;fontSize=13;" parent="1" vertex="1">
                    <mxGeometry x="356.61" y="694" width="160" height="100" as="geometry"/>
                </mxCell>
                <mxCell id="68" value="" style="edgeStyle=none;html=1;dashed=1;fontFamily=Helvetica;fontSize=8;fontColor=#9933FF;opacity=50;" edge="1" parent="1" source="19" target="3">
                    <mxGeometry relative="1" as="geometry"/>
                </mxCell>
                <mxCell id="19" value="spoke1conn" style="text;html=1;align=center;verticalAlign=middle;resizable=0;points=[];autosize=1;strokeColor=none;fillColor=none;rotation=30;fontSize=13;" parent="1" vertex="1">
                    <mxGeometry x="284.35" y="462" width="90" height="30" as="geometry"/>
                </mxCell>
                <mxCell id="20" value="spoke2conn" style="text;html=1;align=center;verticalAlign=middle;resizable=0;points=[];autosize=1;strokeColor=none;fillColor=none;rotation=-62.1;fontColor=#6600CC;fontStyle=1;fontSize=13;" parent="1" vertex="1">
                    <mxGeometry x="423" y="446" width="100" height="30" as="geometry"/>
                </mxCell>
                <mxCell id="25" style="edgeStyle=none;html=1;exitX=0.5;exitY=1;exitDx=0;exitDy=0;endArrow=none;endFill=0;fontSize=13;" parent="1" source="26" edge="1">
                    <mxGeometry relative="1" as="geometry">
                        <mxPoint x="941.0999999999999" y="502" as="targetPoint"/>
                    </mxGeometry>
                </mxCell>
                <mxCell id="26" value="&lt;b style=&quot;font-size: 13px;&quot;&gt;Spoke3&lt;/b&gt;&lt;br style=&quot;font-size: 13px;&quot;&gt;10.3.0.0/24&lt;br style=&quot;font-size: 13px;&quot;&gt;&lt;br style=&quot;font-size: 13px;&quot;&gt;&lt;b style=&quot;font-size: 13px;&quot;&gt;VM 10.3.0.4&lt;/b&gt;" style="whiteSpace=wrap;html=1;fillColor=#dae8fc;strokeColor=#6c8ebf;dashed=1;fontSize=13;" parent="1" vertex="1">
                    <mxGeometry x="741.1" y="322" width="160" height="100" as="geometry"/>
                </mxCell>
                <mxCell id="27" value="" style="aspect=fixed;html=1;points=[];align=center;image;fontSize=13;image=img/lib/azure2/networking/Virtual_Networks.svg;dashed=1;" parent="1" vertex="1">
                    <mxGeometry x="881.1" y="322" width="16.75" height="10" as="geometry"/>
                </mxCell>
                <mxCell id="28" style="edgeStyle=none;html=1;exitX=0.5;exitY=1;exitDx=0;exitDy=0;entryX=0.769;entryY=0.313;entryDx=0;entryDy=0;entryPerimeter=0;endArrow=none;endFill=0;fontSize=13;" parent="1" source="29" target="39" edge="1">
                    <mxGeometry relative="1" as="geometry"/>
                </mxCell>
                <mxCell id="29" value="Spoke4&lt;br style=&quot;font-size: 13px;&quot;&gt;10.4.0.0/24&lt;br style=&quot;font-size: 13px;&quot;&gt;&lt;br style=&quot;font-size: 13px;&quot;&gt;&lt;b style=&quot;font-size: 13px;&quot;&gt;SPK4NVALB 10.4.0.38&lt;/b&gt;" style="whiteSpace=wrap;html=1;fillColor=#f8cecc;strokeColor=#b85450;dashed=1;fontSize=13;" parent="1" vertex="1">
                    <mxGeometry x="981.1" y="322" width="160" height="100" as="geometry"/>
                </mxCell>
                <mxCell id="30" value="" style="aspect=fixed;html=1;points=[];align=center;image;fontSize=13;image=img/lib/azure2/networking/Virtual_Networks.svg;dashed=1;" parent="1" vertex="1">
                    <mxGeometry x="1121.1" y="322" width="16.75" height="10" as="geometry"/>
                </mxCell>
                <mxCell id="31" style="edgeStyle=none;html=1;exitX=0.5;exitY=1;exitDx=0;exitDy=0;entryX=0.5;entryY=0;entryDx=0;entryDy=0;endArrow=none;endFill=0;fontSize=13;" parent="1" source="32" target="29" edge="1">
                    <mxGeometry relative="1" as="geometry"/>
                </mxCell>
                <mxCell id="32" value="&lt;b style=&quot;font-size: 13px;&quot;&gt;Spoke7&lt;/b&gt;&lt;br style=&quot;font-size: 13px;&quot;&gt;10.4.1.0/24&lt;br style=&quot;font-size: 13px;&quot;&gt;&lt;br style=&quot;font-size: 13px;&quot;&gt;&lt;b style=&quot;font-size: 13px;&quot;&gt;VM 10.4.1.4&lt;/b&gt;" style="whiteSpace=wrap;html=1;fillColor=#dae8fc;strokeColor=#6c8ebf;dashed=1;fontSize=13;" parent="1" vertex="1">
                    <mxGeometry x="861.1" y="182" width="160" height="100" as="geometry"/>
                </mxCell>
                <mxCell id="33" value="" style="aspect=fixed;html=1;points=[];align=center;image;fontSize=13;image=img/lib/azure2/networking/Virtual_Networks.svg;dashed=1;" parent="1" vertex="1">
                    <mxGeometry x="1001.1" y="182" width="16.75" height="10" as="geometry"/>
                </mxCell>
                <mxCell id="34" style="edgeStyle=none;html=1;exitX=0.5;exitY=1;exitDx=0;exitDy=0;endArrow=none;endFill=0;fontSize=13;" parent="1" source="35" edge="1">
                    <mxGeometry relative="1" as="geometry">
                        <mxPoint x="1061.1" y="322" as="targetPoint"/>
                    </mxGeometry>
                </mxCell>
                <mxCell id="35" value="&lt;b style=&quot;font-size: 13px;&quot;&gt;Spoke8&lt;/b&gt;&lt;br style=&quot;font-size: 13px;&quot;&gt;10.4.2.0/24&lt;br style=&quot;font-size: 13px;&quot;&gt;&lt;br style=&quot;font-size: 13px;&quot;&gt;&lt;b style=&quot;font-size: 13px;&quot;&gt;VM 10.4.2.4&lt;/b&gt;" style="whiteSpace=wrap;html=1;fillColor=#dae8fc;strokeColor=#6c8ebf;dashed=1;fontSize=13;" parent="1" vertex="1">
                    <mxGeometry x="1076.1" y="182" width="160" height="100" as="geometry"/>
                </mxCell>
                <mxCell id="36" value="" style="aspect=fixed;html=1;points=[];align=center;image;fontSize=13;image=img/lib/azure2/networking/Virtual_Networks.svg;dashed=1;" parent="1" vertex="1">
                    <mxGeometry x="1219.35" y="182" width="16.75" height="10" as="geometry"/>
                </mxCell>
                <mxCell id="37" style="edgeStyle=none;html=1;endArrow=none;endFill=0;strokeColor=#FF8000;entryX=0.5;entryY=0;entryDx=0;entryDy=0;strokeWidth=2;fontSize=13;" parent="1" source="39" target="40" edge="1">
                    <mxGeometry relative="1" as="geometry">
                        <mxPoint x="964.1" y="652" as="targetPoint"/>
                    </mxGeometry>
                </mxCell>
                <mxCell id="38" value="IPSec + BGP" style="edgeLabel;html=1;align=center;verticalAlign=middle;resizable=0;points=[];fontStyle=1;fontColor=#FF8000;fontSize=13;" parent="37" vertex="1" connectable="0">
                    <mxGeometry x="0.3666" y="-2" relative="1" as="geometry">
                        <mxPoint x="-49" y="4" as="offset"/>
                    </mxGeometry>
                </mxCell>
                <mxCell id="39" value="&lt;b style=&quot;font-size: 13px;&quot;&gt;Hub2&lt;br style=&quot;font-size: 13px;&quot;&gt;192.168.2.0/24&lt;/b&gt;" style="aspect=fixed;html=1;points=[];align=center;image;fontSize=13;image=img/lib/azure2/networking/Virtual_WANs.svg;" parent="1" vertex="1">
                    <mxGeometry x="931.1" y="492" width="79.22" height="78" as="geometry"/>
                </mxCell>
                <mxCell id="40" value="&lt;b style=&quot;font-size: 13px;&quot;&gt;Branch 2&lt;/b&gt;&lt;br style=&quot;font-size: 13px;&quot;&gt;10.100.0.0/16&lt;br style=&quot;font-size: 13px;&quot;&gt;&lt;br style=&quot;font-size: 13px;&quot;&gt;&lt;b style=&quot;font-size: 13px;&quot;&gt;VM 10.200.0.4&lt;/b&gt;" style="whiteSpace=wrap;html=1;fillColor=#eeeeee;strokeColor=#36393d;dashed=1;fontSize=13;" parent="1" vertex="1">
                    <mxGeometry x="890.6" y="682" width="160" height="100" as="geometry"/>
                </mxCell>
                <mxCell id="41" value="spoke3conn" style="text;html=1;align=center;verticalAlign=middle;resizable=0;points=[];autosize=1;strokeColor=none;fillColor=none;rotation=33.1;fontSize=13;" parent="1" vertex="1">
                    <mxGeometry x="841.1" y="462" width="90" height="30" as="geometry"/>
                </mxCell>
                <mxCell id="42" value="spoke4conn" style="text;html=1;align=center;verticalAlign=middle;resizable=0;points=[];autosize=1;strokeColor=none;fillColor=none;rotation=-52.7;fontColor=#6600CC;fontStyle=1;fontSize=13;" parent="1" vertex="1">
                    <mxGeometry x="983.1" y="462" width="100" height="30" as="geometry"/>
                </mxCell>
                <mxCell id="47" value="Inter-Hub" style="text;html=1;align=center;verticalAlign=middle;resizable=0;points=[];autosize=1;strokeColor=none;fillColor=none;fontColor=#000000;fontSize=13;" parent="1" vertex="1">
                    <mxGeometry x="639.35" y="540" width="80" height="30" as="geometry"/>
                </mxCell>
                <mxCell id="48" value="&lt;span style=&quot;color: rgb(0, 0, 0); font-size: 11px; background-color: rgb(251, 251, 251);&quot;&gt;UDR - 0.0,0,0/0 &lt;br style=&quot;font-size: 11px;&quot;&gt;Next Hop&amp;nbsp;&lt;/span&gt;&lt;b style=&quot;border-color: var(--border-color); color: rgb(0, 0, 0); text-align: center; background-color: rgb(251, 251, 251);&quot;&gt;SPK2NVALB&amp;nbsp;&lt;/b&gt;&lt;span style=&quot;color: rgb(0, 0, 0); font-size: 11px; background-color: rgb(251, 251, 251);&quot;&gt;(&lt;/span&gt;&lt;span style=&quot;color: rgb(0, 0, 0); background-color: rgb(251, 251, 251);&quot;&gt;10.2.0.38&lt;/span&gt;&lt;span style=&quot;color: rgb(0, 0, 0); font-size: 11px; background-color: rgb(251, 251, 251);&quot;&gt;)&lt;/span&gt;" style="aspect=fixed;html=1;points=[];align=left;image;fontSize=11;image=img/lib/azure2/networking/Route_Tables.svg;fontColor=#FF8000;fontStyle=1" parent="1" vertex="1">
                    <mxGeometry x="1300" y="867" width="20.65" height="20" as="geometry"/>
                </mxCell>
                <mxCell id="50" value="&lt;span style=&quot;color: rgb(0, 0, 0); font-size: 11px; background-color: rgb(251, 251, 251);&quot;&gt;UDR - 0.0,0,0/0 &lt;br style=&quot;font-size: 11px;&quot;&gt;Next Hop&amp;nbsp;&lt;/span&gt;&lt;b style=&quot;border-color: var(--border-color); color: rgb(0, 0, 0); text-align: center; background-color: rgb(251, 251, 251);&quot;&gt;SPK4NVALB&amp;nbsp;&lt;/b&gt;&lt;span style=&quot;color: rgb(0, 0, 0); font-size: 11px; background-color: rgb(251, 251, 251);&quot;&gt;(10.4.0.38)&lt;/span&gt;" style="aspect=fixed;html=1;points=[];align=left;image;fontSize=11;image=img/lib/azure2/networking/Route_Tables.svg;fontColor=#FF8000;fontStyle=1" parent="1" vertex="1">
                    <mxGeometry x="860.45" y="120" width="20.65" height="20" as="geometry"/>
                </mxCell>
                <mxCell id="51" value="&lt;span style=&quot;color: rgb(0, 0, 0); font-size: 11px; background-color: rgb(251, 251, 251);&quot;&gt;UDR - 0.0,0,0/0 &lt;br style=&quot;font-size: 11px;&quot;&gt;Next Hop&amp;nbsp;&lt;/span&gt;&lt;b style=&quot;border-color: var(--border-color); color: rgb(0, 0, 0); text-align: center; background-color: rgb(251, 251, 251);&quot;&gt;SPK4NVALB&amp;nbsp;&lt;/b&gt;&lt;span style=&quot;color: rgb(0, 0, 0); font-size: 11px; background-color: rgb(251, 251, 251);&quot;&gt;(10.4.0.38)&lt;/span&gt;" style="aspect=fixed;html=1;points=[];align=left;image;fontSize=11;image=img/lib/azure2/networking/Route_Tables.svg;fontColor=#FF8000;fontStyle=1" parent="1" vertex="1">
                    <mxGeometry x="1079.0000000000002" y="120" width="20.65" height="20" as="geometry"/>
                </mxCell>
                <mxCell id="54" style="edgeStyle=none;html=1;endArrow=none;endFill=0;exitX=0.5;exitY=1;exitDx=0;exitDy=0;" parent="1" source="52" target="9" edge="1">
                    <mxGeometry relative="1" as="geometry"/>
                </mxCell>
                <mxCell id="52" value="&lt;b style=&quot;font-size: 13px;&quot;&gt;Spoke11&lt;/b&gt;&lt;br style=&quot;font-size: 13px;&quot;&gt;10.20.1.0/24&lt;br style=&quot;font-size: 13px;&quot;&gt;&lt;br style=&quot;font-size: 13px;&quot;&gt;&lt;b style=&quot;font-size: 13px;&quot;&gt;VM 10.20.1.4&lt;/b&gt;" style="whiteSpace=wrap;html=1;fillColor=#dae8fc;strokeColor=#6c8ebf;dashed=1;fontSize=13;" parent="1" vertex="1">
                    <mxGeometry x="320" y="-78" width="160" height="100" as="geometry"/>
                </mxCell>
                <mxCell id="55" style="edgeStyle=none;html=1;exitX=0.5;exitY=1;exitDx=0;exitDy=0;entryX=0.75;entryY=0;entryDx=0;entryDy=0;endArrow=none;endFill=0;" parent="1" source="53" target="9" edge="1">
                    <mxGeometry relative="1" as="geometry"/>
                </mxCell>
                <mxCell id="53" value="&lt;b style=&quot;font-size: 13px;&quot;&gt;Spoke12&lt;/b&gt;&lt;br style=&quot;font-size: 13px;&quot;&gt;10.20.2.0/24&lt;br style=&quot;font-size: 13px;&quot;&gt;&lt;br style=&quot;font-size: 13px;&quot;&gt;&lt;b style=&quot;font-size: 13px;&quot;&gt;VM 10.20.2.4&lt;/b&gt;" style="whiteSpace=wrap;html=1;fillColor=#dae8fc;strokeColor=#6c8ebf;dashed=1;fontSize=13;" parent="1" vertex="1">
                    <mxGeometry x="518" y="-75" width="160" height="100" as="geometry"/>
                </mxCell>
                <mxCell id="56" value="Workarounds for Load Balancer&lt;br&gt;BGP - Next Hop IP&lt;br&gt;Static Route Propagation" style="text;strokeColor=none;align=left;fillColor=none;html=1;verticalAlign=middle;whiteSpace=wrap;rounded=0;" parent="1" vertex="1">
                    <mxGeometry x="523" y="452.5" width="217" height="49" as="geometry"/>
                </mxCell>
                <mxCell id="60" style="edgeStyle=none;html=1;entryX=0.5;entryY=1;entryDx=0;entryDy=0;dashed=1;fontFamily=Helvetica;opacity=50;" edge="1" parent="1" source="57" target="9">
                    <mxGeometry relative="1" as="geometry"/>
                </mxCell>
                <mxCell id="57" value="ARS (AS 65515)&lt;br style=&quot;font-size: 11px;&quot;&gt;&lt;span style=&quot;color: rgb(68, 68, 68); font-size: 11px; text-align: left;&quot;&gt;10.20.0.132&lt;br style=&quot;font-size: 11px;&quot;&gt;&lt;/span&gt;&lt;span style=&quot;color: rgb(68, 68, 68); font-size: 11px; text-align: left;&quot;&gt;10.20.0.133&lt;/span&gt;" style="text;strokeColor=default;align=center;fillColor=none;html=1;verticalAlign=middle;whiteSpace=wrap;rounded=0;fontFamily=Helvetica;dashed=1;fontSize=11;" vertex="1" parent="1">
                    <mxGeometry x="599" y="226" width="106" height="56" as="geometry"/>
                </mxCell>
                <mxCell id="59" style="edgeStyle=none;html=1;fontFamily=Helvetica;dashed=1;opacity=50;" edge="1" parent="1" source="58" target="17">
                    <mxGeometry relative="1" as="geometry"/>
                </mxCell>
                <mxCell id="58" value="Virtual Router (AS 65515)&lt;br&gt;&lt;span style=&quot;color: rgb(68, 68, 68); font-size: 14px; text-align: left;&quot;&gt;192.168.1.68&lt;/span&gt;&lt;span style=&quot;color: rgb(68, 68, 68); font-size: 14px; text-align: left;&quot;&gt;&lt;br&gt;&lt;/span&gt;&lt;span style=&quot;color: rgb(68, 68, 68); font-size: 14px; text-align: left;&quot;&gt;192.168.1.69&lt;/span&gt;" style="text;strokeColor=default;align=center;fillColor=none;html=1;verticalAlign=middle;whiteSpace=wrap;rounded=0;fontFamily=Helvetica;fontStyle=0;dashed=1;" vertex="1" parent="1">
                    <mxGeometry x="173.85" y="524.5" width="160" height="61" as="geometry"/>
                </mxCell>
                <mxCell id="63" style="edgeStyle=none;html=1;entryX=0;entryY=0.5;entryDx=0;entryDy=0;dashed=1;fontFamily=Helvetica;fontSize=11;opacity=50;exitX=1;exitY=0.5;exitDx=0;exitDy=0;" edge="1" parent="1" source="62" target="6">
                    <mxGeometry relative="1" as="geometry"/>
                </mxCell>
                <mxCell id="62" value="&lt;div style=&quot;font-size: 9px;&quot;&gt;&lt;b&gt;Transit OPNsense BGP config:&lt;/b&gt;&lt;/div&gt;&lt;div style=&quot;font-size: 9px;&quot;&gt;&lt;span style=&quot;background-color: initial;&quot;&gt;router bgp 65002&lt;/span&gt;&lt;/div&gt;&lt;div style=&quot;font-size: 9px;&quot;&gt;&amp;nbsp;no bgp ebgp-requires-policy&lt;/div&gt;&lt;div style=&quot;font-size: 9px;&quot;&gt;&amp;nbsp;no bgp default ipv4-unicast&lt;/div&gt;&lt;div style=&quot;font-size: 9px;&quot;&gt;&amp;nbsp;no bgp network import-check&lt;/div&gt;&lt;div style=&quot;font-size: 9px;&quot;&gt;&amp;nbsp;neighbor 10.20.0.84 remote-as 65020&lt;/div&gt;&lt;div style=&quot;font-size: 9px;&quot;&gt;&amp;nbsp;neighbor 10.20.0.84 ebgp-multihop&lt;/div&gt;&lt;div style=&quot;font-size: 9px;&quot;&gt;&amp;nbsp;neighbor 192.168.1.68 remote-as 65515&lt;/div&gt;&lt;div style=&quot;font-size: 9px;&quot;&gt;&amp;nbsp;neighbor 192.168.1.68 ebgp-multihop&lt;/div&gt;&lt;div style=&quot;font-size: 9px;&quot;&gt;&amp;nbsp;neighbor 192.168.1.69 remote-as 65515&lt;/div&gt;&lt;div style=&quot;font-size: 9px;&quot;&gt;&amp;nbsp;neighbor 192.168.1.69 ebgp-multihop&lt;/div&gt;&lt;div style=&quot;font-size: 9px;&quot;&gt;&amp;nbsp;!&lt;/div&gt;&lt;div style=&quot;font-size: 9px;&quot;&gt;&amp;nbsp;address-family ipv4 unicast&lt;/div&gt;&lt;div style=&quot;font-size: 9px;&quot;&gt;&amp;nbsp; network 10.2.0.0/16&lt;/div&gt;&lt;div style=&quot;font-size: 9px;&quot;&gt;&amp;nbsp; neighbor 10.20.0.84 activate&lt;/div&gt;&lt;div style=&quot;font-size: 9px;&quot;&gt;&amp;nbsp; neighbor 192.168.1.68 activate&lt;/div&gt;&lt;div style=&quot;font-size: 9px;&quot;&gt;&amp;nbsp; neighbor 192.168.1.69 activate&lt;/div&gt;&lt;div style=&quot;font-size: 9px;&quot;&gt;&amp;nbsp;exit-address-family&lt;/div&gt;&lt;div style=&quot;font-size: 9px;&quot;&gt;exit&lt;/div&gt;" style="text;align=left;html=1;verticalAlign=middle;whiteSpace=wrap;rounded=0;dashed=1;fontFamily=Helvetica;fontSize=9;strokeColor=default;fontColor=#9933FF;" vertex="1" parent="1">
                    <mxGeometry x="57" y="87" width="176" height="213" as="geometry"/>
                </mxCell>
                <mxCell id="66" style="edgeStyle=none;html=1;entryX=1;entryY=0.5;entryDx=0;entryDy=0;dashed=1;fontFamily=Helvetica;fontSize=11;opacity=50;" edge="1" parent="1" source="65" target="9">
                    <mxGeometry relative="1" as="geometry"/>
                </mxCell>
                <mxCell id="65" value="&lt;div style=&quot;font-size: 9px;&quot;&gt;&lt;div&gt;&lt;b style=&quot;border-color: var(--border-color);&quot;&gt;Hub OPNsense BGP config:&lt;/b&gt;&lt;br&gt;&lt;/div&gt;&lt;div&gt;router bgp 65020&lt;/div&gt;&lt;div&gt;&amp;nbsp;no bgp ebgp-requires-policy&lt;/div&gt;&lt;div&gt;&amp;nbsp;no bgp default ipv4-unicast&lt;/div&gt;&lt;div&gt;&amp;nbsp;no bgp network import-check&lt;/div&gt;&lt;div&gt;&amp;nbsp;neighbor 10.2.0.52 remote-as 65002&lt;/div&gt;&lt;div&gt;&amp;nbsp;neighbor 10.2.0.52 ebgp-multihop&lt;/div&gt;&lt;div&gt;&amp;nbsp;neighbor 10.20.0.132 remote-as 65515&lt;/div&gt;&lt;div&gt;&amp;nbsp;neighbor 10.20.0.132 ebgp-multihop&lt;/div&gt;&lt;div&gt;&amp;nbsp;neighbor 10.20.0.133 remote-as 65515&lt;/div&gt;&lt;div&gt;&amp;nbsp;neighbor 10.20.0.133 ebgp-multihop&lt;/div&gt;&lt;div&gt;&amp;nbsp;!&lt;/div&gt;&lt;div&gt;&amp;nbsp;address-family ipv4 unicast&lt;/div&gt;&lt;div&gt;&amp;nbsp; network 10.20.0.0/16&lt;/div&gt;&lt;div&gt;&amp;nbsp; neighbor 10.2.0.52 activate&lt;/div&gt;&lt;div&gt;&amp;nbsp; neighbor 10.2.0.52 route-map exclude_as in&lt;/div&gt;&lt;div&gt;&amp;nbsp; neighbor 10.2.0.52 route-map exclude_as out&lt;/div&gt;&lt;div&gt;&amp;nbsp; neighbor 10.20.0.132 activate&lt;/div&gt;&lt;div&gt;&amp;nbsp; neighbor 10.20.0.132 as-override&lt;/div&gt;&lt;div&gt;&amp;nbsp; neighbor 10.20.0.133 activate&lt;/div&gt;&lt;div&gt;&amp;nbsp; neighbor 10.20.0.133 as-override&lt;/div&gt;&lt;div&gt;&amp;nbsp;exit-address-family&lt;/div&gt;&lt;div&gt;exit&lt;/div&gt;&lt;div&gt;!&lt;/div&gt;&lt;div&gt;route-map exclude_as permit 10&lt;/div&gt;&lt;div&gt;&lt;span style=&quot;background-color: initial;&quot;&gt;&amp;nbsp;set as-path exclude 65515&lt;/span&gt;&lt;br&gt;&lt;/div&gt;&lt;div&gt;exit&lt;/div&gt;&lt;/div&gt;" style="text;align=left;html=1;verticalAlign=middle;whiteSpace=wrap;rounded=0;dashed=1;fontFamily=Helvetica;fontSize=9;strokeColor=default;" vertex="1" parent="1">
                    <mxGeometry x="741.1" y="-185" width="217" height="302" as="geometry"/>
                </mxCell>
            </root>
        </mxGraphModel>
    </diagram>
</mxfile>